# Blender v2.83.0 OBJ File: 'TreeTile.blend'
# www.blender.org
mtllib TreeTile.mtl
o Cube_Cube.002
v -1.000000 0.000000 1.000000
v -0.773054 2.000000 0.773054
v -1.000000 0.000000 -1.000000
v -0.639720 2.000000 -0.639720
v 1.000000 0.000000 1.000000
v 0.672313 2.000000 0.672313
v 1.000000 0.000000 -1.000000
v 0.650359 2.000000 -0.650359
v -1.000000 2.000000 1.000000
v -1.000000 2.000000 -1.000000
v 1.000000 2.000000 -1.000000
v 1.000000 2.000000 1.000000
v 0.500000 0.000000 -1.000000
v 0.000000 0.000000 -1.000000
v -0.500000 0.000000 -1.000000
v -0.500000 2.000000 -1.000000
v 0.000000 2.000000 -1.000000
v 0.500000 2.000000 -1.000000
v -0.500000 0.000000 1.000000
v 0.000000 0.000000 1.000000
v 0.500000 0.000000 1.000000
v 0.500000 2.000000 1.000000
v 0.000000 2.000000 1.000000
v -0.500000 2.000000 1.000000
v -0.519861 2.000000 -0.639720
v 0.000000 2.000000 -0.773054
v 0.509222 2.000000 -0.650359
v 0.487267 2.000000 0.672313
v 0.000000 2.000000 0.773054
v -0.386527 2.000000 0.773054
v -1.000000 0.000000 -0.500000
v -1.000000 0.000000 0.000000
v -1.000000 0.000000 0.500000
v -1.000000 2.000000 0.500000
v -1.000000 2.000000 0.000000
v -1.000000 2.000000 -0.500000
v 1.000000 0.000000 0.500000
v 1.000000 0.000000 0.000000
v 1.000000 0.000000 -0.500000
v 1.000000 2.000000 -0.500000
v 1.000000 2.000000 0.000000
v 1.000000 2.000000 0.500000
v -0.773054 2.000000 0.386527
v -0.773054 2.000000 0.000000
v -0.639720 2.000000 -0.519861
v 0.650359 2.000000 -0.509222
v 0.773054 2.000000 0.000000
v 0.672313 2.000000 0.487267
v 0.509222 2.000000 -0.509222
v 0.386527 2.000000 0.000000
v 0.487267 2.000000 0.487267
v 0.000000 2.000000 -0.386527
v -0.129824 2.000000 0.129824
v -0.129824 2.000000 0.256703
v -0.519861 2.000000 -0.519861
v -0.256703 2.000000 0.129824
v -0.256703 2.000000 0.256703
v -0.500000 0.000000 -0.500000
v -0.500000 0.000000 0.000000
v -0.500000 0.000000 0.500000
v 0.000000 0.000000 -0.500000
v 0.000000 0.000000 0.000000
v 0.000000 0.000000 0.500000
v 0.500000 0.000000 -0.500000
v 0.500000 0.000000 0.000000
v 0.500000 0.000000 0.500000
v -0.608143 3.205592 -0.551437
v -0.608143 3.205592 -0.608143
v 0.551381 3.205592 -0.608200
v 0.608200 3.205592 -0.608200
v 0.605441 3.205592 0.554139
v 0.605441 3.205592 0.605441
v -0.551437 3.205592 -0.608143
v 0.554139 3.205592 0.605441
v 0.554139 3.205592 0.554139
v 0.608200 3.205592 -0.551381
v 0.551381 3.205592 -0.551381
v -0.166714 3.205592 0.166714
v -0.166714 3.205592 0.219813
v -0.551437 3.205592 -0.551437
v -0.219813 3.205592 0.166714
v -0.219813 3.205592 0.219813
v 0.845282 2.429407 -0.314299
v 0.314299 2.429407 -0.314299
v 0.845282 2.429407 -0.845282
v 0.314299 2.429407 -0.845282
v 0.128916 2.261163 -0.128916
v 0.128916 2.261163 0.515443
v -0.515443 2.261163 -0.128916
v -0.515443 2.261163 0.515443
v 0.221244 2.283808 0.221244
v 0.938336 2.283808 0.221244
v 0.938336 2.283808 0.938336
v 0.221244 2.283808 0.938336
v -0.884817 2.378504 -0.884817
v -0.274764 2.378504 -0.884817
v -0.884817 2.378504 -0.274764
v -0.274764 2.378504 -0.274764
v -0.519861 2.363640 -0.639720
v -0.639720 2.363640 -0.639720
v -0.639720 2.363640 -0.519861
v -0.519861 2.363640 -0.519861
v -0.129824 2.236290 0.256703
v -0.256703 2.236290 0.256703
v -0.129824 2.236290 0.129824
v -0.256703 2.236290 0.129824
v 0.672313 2.263536 0.487267
v 0.487267 2.263536 0.672313
v 0.487267 2.263536 0.487267
v 0.672313 2.263536 0.672313
v 0.509222 2.416897 -0.509222
v 0.650359 2.416897 -0.509222
v 0.650359 2.416897 -0.650359
v 0.509222 2.416897 -0.650359
v 0.376099 2.712599 0.376099
v 0.783482 2.712599 0.783482
v 0.783482 2.712599 0.376099
v 0.376099 2.712599 0.783482
v 0.348778 2.720470 0.348778
v 0.810803 2.720470 0.810803
v 0.810803 2.720470 0.348778
v 0.348778 2.720470 0.810803
v 0.754691 2.725992 -0.404889
v 0.754691 2.725992 -0.754691
v 0.404889 2.725992 -0.754691
v 0.404889 2.725992 -0.404889
v 0.800853 2.737236 -0.358728
v 0.800853 2.737236 -0.800853
v 0.358728 2.737236 -0.800853
v 0.358728 2.737236 -0.358728
v -0.819490 2.688244 -0.819490
v -0.819490 2.688244 -0.340091
v -0.340091 2.688244 -0.340091
v -0.340091 2.688244 -0.819490
v -0.363431 2.677713 -0.796150
v -0.796150 2.677713 -0.796150
v -0.796150 2.677713 -0.363431
v -0.363431 2.677713 -0.363431
v 0.014996 2.676982 -0.014996
v -0.401523 2.676982 -0.014996
v 0.014996 2.676982 0.401523
v -0.401523 2.676982 0.401523
v 0.058142 2.689051 -0.058142
v -0.444669 2.689051 -0.058142
v 0.058142 2.689051 0.444669
v -0.444669 2.689051 0.444669
vt 0.312500 0.687500
vt 0.375000 0.687500
vt 0.375000 0.750000
vt 0.312500 0.750000
vt 0.846632 0.528368
vt 0.846632 0.576684
vt 0.846632 0.576684
vt 0.846632 0.528368
vt 0.125000 0.687500
vt 0.187500 0.687500
vt 0.187500 0.750000
vt 0.125000 0.750000
vt 0.250000 0.687500
vt 0.250000 0.750000
vt 0.250000 0.500000
vt 0.312500 0.500000
vt 0.312500 0.562500
vt 0.250000 0.562500
vt 0.312500 0.625000
vt 0.250000 0.625000
vt 0.187500 0.500000
vt 0.187500 0.562500
vt 0.187500 0.625000
vt 0.125000 0.500000
vt 0.125000 0.562500
vt 0.125000 0.625000
vt 0.653368 0.576684
vt 0.653368 0.528368
vt 0.653368 0.528368
vt 0.653368 0.576684
vt 0.701684 0.576684
vt 0.701684 0.576684
vt 0.798316 0.528368
vt 0.798316 0.528368
vt 0.375000 0.500000
vt 0.375000 0.562500
vt 0.375000 0.625000
vt 0.653368 0.673316
vt 0.701684 0.673316
vt 0.701684 0.721632
vt 0.653368 0.721632
vt 0.750000 0.625000
vt 0.798316 0.625000
vt 0.798316 0.673316
vt 0.750000 0.673316
vt 0.701684 0.528368
vt 0.798316 0.576684
vt 0.798316 0.576684
vt 0.750000 0.673316
vt 0.750000 0.625000
vt 0.653368 0.673316
vt 0.701684 0.673316
vt 0.701684 0.721632
vt 0.653368 0.721632
vt 0.701684 0.528368
vt 0.798316 0.625000
vt 0.798316 0.673316
vt 0.701684 0.528368
vt 0.701684 0.576684
vt 0.701684 0.576684
vt 0.701684 0.528368
vt 0.653368 0.528368
vt 0.653368 0.528368
vt 0.653368 0.576684
vt 0.653368 0.576684
vt 0.798316 0.625000
vt 0.798316 0.673316
vt 0.798316 0.673316
vt 0.798316 0.625000
vt 0.750000 0.673316
vt 0.750000 0.673316
vt 0.750000 0.625000
vt 0.750000 0.625000
vt 0.701684 0.673316
vt 0.701684 0.721632
vt 0.701684 0.721632
vt 0.701684 0.673316
vt 0.653368 0.721632
vt 0.653368 0.673316
vt 0.653368 0.673316
vt 0.653368 0.721632
vt 0.798316 0.576684
vt 0.798316 0.528368
vt 0.798316 0.528368
vt 0.798316 0.576684
vt 0.846632 0.576684
vt 0.846632 0.576684
vt 0.846632 0.528368
vt 0.846632 0.528368
vt 0.701684 0.721632
vt 0.701684 0.673316
vt 0.653368 0.673316
vt 0.653368 0.721632
vt 0.701684 0.576684
vt 0.701684 0.528368
vt 0.653368 0.528368
vt 0.653368 0.576684
vt 0.798316 0.576684
vt 0.798316 0.528368
vt 0.846632 0.576684
vt 0.846632 0.528368
vt 0.798316 0.673316
vt 0.798316 0.625000
vt 0.750000 0.673316
vt 0.750000 0.625000
vt 0.846632 0.528368
vt 0.846632 0.576684
vt 0.798316 0.528368
vt 0.798316 0.576684
vt 0.750000 0.673316
vt 0.750000 0.625000
vt 0.798316 0.625000
vt 0.798316 0.673316
vt 0.653368 0.673316
vt 0.701684 0.673316
vt 0.701684 0.721632
vt 0.653368 0.721632
vt 0.653368 0.576684
vt 0.653368 0.528368
vt 0.701684 0.576684
vt 0.701684 0.528368
vt 0.375000 0.187500
vt 0.625000 0.187500
vt 0.625000 0.250000
vt 0.375000 0.250000
vt 0.375000 0.437500
vt 0.625000 0.437500
vt 0.625000 0.500000
vt 0.625000 0.687500
vt 0.625000 0.750000
vt 0.375000 0.937500
vt 0.625000 0.937500
vt 0.625000 1.000000
vt 0.375000 1.000000
vt 0.846632 0.673316
vt 0.846632 0.721632
vt 0.798316 0.721632
vt 0.875000 0.500000
vt 0.875000 0.562500
vt 0.687500 0.500000
vt 0.875000 0.750000
vt 0.812500 0.750000
vt 0.687500 0.750000
vt 0.750000 0.721632
vt 0.750000 0.750000
vt 0.812500 0.500000
vt 0.750000 0.528368
vt 0.750000 0.500000
vt 0.625000 0.812500
vt 0.375000 0.812500
vt 0.625000 0.875000
vt 0.375000 0.875000
vt 0.625000 0.312500
vt 0.375000 0.312500
vt 0.625000 0.375000
vt 0.375000 0.375000
vt 0.750000 0.576684
vt 0.701684 0.625000
vt 0.653368 0.625000
vt 0.625000 0.562500
vt 0.625000 0.625000
vt 0.875000 0.687500
vt 0.846632 0.625000
vt 0.875000 0.625000
vt 0.375000 0.000000
vt 0.625000 0.000000
vt 0.625000 0.062500
vt 0.375000 0.062500
vt 0.625000 0.125000
vt 0.375000 0.125000
vn 0.0000 -1.0000 0.0000
vn -0.9257 0.3782 0.0000
vn 0.9248 0.3804 0.0000
vn -0.0000 0.3804 0.9248
vn 0.0000 0.3782 -0.9257
vn 0.0000 1.0000 0.0000
vn 0.0000 0.3782 0.9257
vn 0.9169 0.3991 0.0000
vn 0.0000 0.3898 -0.9209
vn 0.0000 0.3898 0.9209
vn 0.0000 0.3804 -0.9248
vn -0.0000 0.3991 -0.9169
vn 0.9257 0.3782 0.0000
vn 0.9209 0.3898 0.0000
vn 0.0000 0.3991 0.9169
vn -0.9209 0.3898 0.0000
vn -0.9248 0.3804 0.0000
vn -0.9169 0.3991 0.0000
vn -0.0640 -0.9979 0.0000
vn 0.0000 -0.9979 -0.0640
vn 0.0000 -0.9979 0.0640
vn 0.0640 -0.9979 0.0000
vn -0.0957 -0.9954 0.0000
vn 0.0000 -0.9954 0.0957
vn 0.0000 -0.9954 -0.0957
vn 0.0957 -0.9954 0.0000
vn -0.0760 -0.9971 0.0000
vn 0.0760 -0.9971 0.0000
vn 0.0000 -0.9971 0.0760
vn 0.0000 -0.9971 -0.0760
vn 0.0605 -0.9982 0.0000
vn 0.0000 -0.9982 0.0605
vn 0.0000 -0.9982 -0.0605
vn -0.0605 -0.9982 0.0000
vn -0.9405 0.3397 0.0000
vn 0.9405 0.3397 0.0000
vn 0.0000 0.3397 0.9405
vn 0.0000 0.3397 -0.9405
vn -0.2768 -0.9609 0.0000
vn 0.2768 -0.9609 0.0000
vn 0.0000 -0.9609 0.2769
vn 0.0000 -0.9609 -0.2769
vn -0.9564 0.2921 0.0000
vn 0.0000 0.2921 -0.9564
vn -0.0000 0.2921 0.9564
vn 0.9564 0.2921 0.0000
vn -0.2367 -0.9716 -0.0000
vn 0.0000 -0.9716 -0.2367
vn -0.0000 -0.9716 0.2367
vn 0.2367 -0.9716 0.0000
vn 0.4113 -0.9115 0.0000
vn 0.0000 -0.9115 0.4113
vn 0.0000 -0.9115 -0.4113
vn -0.4113 -0.9115 0.0000
vn -0.9588 0.2841 0.0000
vn 0.0000 0.2841 -0.9588
vn 0.0000 0.2841 0.9588
vn 0.9588 0.2841 0.0000
vn -0.9645 0.2642 0.0000
vn 0.0000 0.2642 0.9645
vn 0.0000 0.2642 -0.9645
vn 0.9645 0.2642 0.0000
vn -0.2694 -0.9630 0.0000
vn 0.0000 -0.9630 0.2694
vn -0.0000 -0.9630 -0.2694
vn 0.2694 -0.9630 0.0000
vn -1.0000 0.0000 0.0000
vn 0.0000 0.0000 -1.0000
vn 0.0000 0.0000 1.0000
vn 1.0000 0.0000 0.0000
usemtl Leafs
s off
f 66/1/1 37/2/1 5/3/1 21/4/1
f 131/5/2 132/6/2 67/7/2 68/8/2
f 33/9/1 60/10/1 19/11/1 1/12/1
f 60/10/1 63/13/1 20/14/1 19/11/1
f 63/13/1 66/1/1 21/4/1 20/14/1
f 14/15/1 13/16/1 64/17/1 61/18/1
f 61/18/1 64/17/1 65/19/1 62/20/1
f 62/20/1 65/19/1 66/1/1 63/13/1
f 15/21/1 14/15/1 61/18/1 58/22/1
f 58/22/1 61/18/1 62/20/1 59/23/1
f 59/23/1 62/20/1 63/13/1 60/10/1
f 3/24/1 15/21/1 58/22/1 31/25/1
f 31/25/1 58/22/1 59/23/1 32/26/1
f 32/26/1 59/23/1 60/10/1 33/9/1
f 127/27/3 128/28/3 70/29/3 76/30/3
f 130/31/4 127/27/4 76/30/4 77/32/4
f 134/33/5 131/5/5 68/8/5 73/34/5
f 13/16/1 7/35/1 39/36/1 64/17/1
f 64/17/1 39/36/1 38/37/1 65/19/1
f 65/19/1 38/37/1 37/2/1 66/1/1
f 71/38/6 75/39/6 74/40/6 72/41/6
f 78/42/6 81/43/6 82/44/6 79/45/6
f 70/29/6 69/46/6 77/32/6 76/30/6
f 73/34/6 68/8/6 67/7/6 80/47/6
f 132/6/7 133/48/7 80/47/7 67/7/7
f 145/49/8 143/50/8 78/42/8 79/45/8
f 121/51/9 119/52/9 75/39/9 71/38/9
f 122/53/10 120/54/10 72/41/10 74/40/10
f 128/28/11 129/55/11 69/46/11 70/29/11
f 143/50/12 144/56/12 81/43/12 78/42/12
f 133/48/13 134/33/13 73/34/13 80/47/13
f 120/54/14 121/51/14 71/38/14 72/41/14
f 146/57/15 145/49/15 79/45/15 82/44/15
f 119/52/16 122/53/16 74/40/16 75/39/16
f 129/55/17 130/31/17 77/32/17 69/46/17
f 144/56/18 146/57/18 82/44/18 81/43/18
f 114/58/19 111/59/19 84/60/19 86/61/19
f 113/62/20 114/58/20 86/61/20 85/63/20
f 111/59/21 112/64/21 83/65/21 84/60/21
f 112/64/22 113/62/22 85/63/22 83/65/22
f 106/66/23 104/67/23 90/68/23 89/69/23
f 104/67/24 103/70/24 88/71/24 90/68/24
f 105/72/25 106/66/25 89/69/25 87/73/25
f 103/70/26 105/72/26 87/73/26 88/71/26
f 109/74/27 108/75/27 94/76/27 91/77/27
f 110/78/28 107/79/28 92/80/28 93/81/28
f 108/75/29 110/78/29 93/81/29 94/76/29
f 107/79/30 109/74/30 91/77/30 92/80/30
f 102/82/31 99/83/31 96/84/31 98/85/31
f 101/86/32 102/82/32 98/85/32 97/87/32
f 99/83/33 100/88/33 95/89/33 96/84/33
f 100/88/34 101/86/34 97/87/34 95/89/34
f 91/77/35 94/76/35 118/90/35 115/91/35
f 93/81/36 92/80/36 117/92/36 116/93/36
f 94/76/37 93/81/37 116/93/37 118/90/37
f 92/80/38 91/77/38 115/91/38 117/92/38
f 115/91/39 118/90/39 122/53/39 119/52/39
f 116/93/40 117/92/40 121/51/40 120/54/40
f 118/90/41 116/93/41 120/54/41 122/53/41
f 117/92/42 115/91/42 119/52/42 121/51/42
f 86/61/43 84/60/43 126/94/43 125/95/43
f 85/63/44 86/61/44 125/95/44 124/96/44
f 84/60/45 83/65/45 123/97/45 126/94/45
f 83/65/46 85/63/46 124/96/46 123/97/46
f 125/95/47 126/94/47 130/31/47 129/55/47
f 124/96/48 125/95/48 129/55/48 128/28/48
f 126/94/49 123/97/49 127/27/49 130/31/49
f 123/97/50 124/96/50 128/28/50 127/27/50
f 138/98/51 135/99/51 134/33/51 133/48/51
f 137/100/52 138/98/52 133/48/52 132/6/52
f 135/99/53 136/101/53 131/5/53 134/33/53
f 136/101/54 137/100/54 132/6/54 131/5/54
f 95/89/55 97/87/55 137/100/55 136/101/55
f 96/84/56 95/89/56 136/101/56 135/99/56
f 97/87/57 98/85/57 138/98/57 137/100/57
f 98/85/58 96/84/58 135/99/58 138/98/58
f 89/69/59 90/68/59 142/102/59 140/103/59
f 90/68/60 88/71/60 141/104/60 142/102/60
f 87/73/61 89/69/61 140/103/61 139/105/61
f 88/71/62 87/73/62 139/105/62 141/104/62
f 140/103/63 142/102/63 146/57/63 144/56/63
f 142/102/64 141/104/64 145/49/64 146/57/64
f 139/105/65 140/103/65 144/56/65 143/50/65
f 141/104/66 139/105/66 143/50/66 145/49/66
usemtl Wood
f 4/106/67 45/107/67 101/86/67 100/88/67
f 25/108/68 4/106/68 100/88/68 99/83/68
f 45/107/69 55/109/69 102/82/69 101/86/69
f 55/109/70 25/108/70 99/83/70 102/82/70
f 54/110/70 53/111/70 105/72/70 103/70/70
f 53/111/68 56/112/68 106/66/68 105/72/68
f 57/113/69 54/110/69 103/70/69 104/67/69
f 56/112/67 57/113/67 104/67/67 106/66/67
f 48/114/68 51/115/68 109/74/68 107/79/68
f 28/116/69 6/117/69 110/78/69 108/75/69
f 6/117/70 48/114/70 107/79/70 110/78/70
f 51/115/67 28/116/67 108/75/67 109/74/67
f 46/118/70 8/119/70 113/62/70 112/64/70
f 49/120/69 46/118/69 112/64/69 111/59/69
f 8/119/68 27/121/68 114/58/68 113/62/68
f 27/121/67 49/120/67 111/59/67 114/58/67
usemtl Grass
f 31/122/67 36/123/67 10/124/67 3/125/67
f 13/126/68 18/127/68 11/128/68 7/35/68
f 37/2/70 42/129/70 12/130/70 5/3/70
f 19/131/69 24/132/69 9/133/69 1/134/69
f 57/113/6 43/135/6 2/136/6 30/137/6
f 45/107/6 4/106/6 10/138/6 36/139/6
f 27/121/6 8/119/6 11/128/6 18/140/6
f 48/114/6 6/117/6 12/130/6 42/129/6
f 30/137/6 2/136/6 9/141/6 24/142/6
f 6/117/6 28/116/6 22/143/6 12/130/6
f 28/116/6 29/144/6 23/145/6 22/143/6
f 29/144/6 30/137/6 24/142/6 23/145/6
f 4/106/6 25/108/6 16/146/6 10/138/6
f 25/108/6 26/147/6 17/148/6 16/146/6
f 26/147/6 27/121/6 18/140/6 17/148/6
f 51/115/6 54/110/6 29/144/6 28/116/6
f 54/110/6 57/113/6 30/137/6 29/144/6
f 5/3/69 12/130/69 22/149/69 21/150/69
f 21/150/69 22/149/69 23/151/69 20/152/69
f 20/152/69 23/151/69 24/132/69 19/131/69
f 3/125/68 10/124/68 16/153/68 15/154/68
f 15/154/68 16/153/68 17/155/68 14/156/68
f 14/156/68 17/155/68 18/127/68 13/126/68
f 26/147/6 25/108/6 55/109/6 52/157/6
f 52/157/6 55/109/6 56/112/6 53/111/6
f 27/121/6 26/147/6 52/157/6 49/120/6
f 49/120/6 52/157/6 53/111/6 50/158/6
f 50/158/6 53/111/6 54/110/6 51/115/6
f 46/118/6 49/120/6 50/158/6 47/159/6
f 47/159/6 50/158/6 51/115/6 48/114/6
f 8/119/6 46/118/6 40/160/6 11/128/6
f 46/118/6 47/159/6 41/161/6 40/160/6
f 47/159/6 48/114/6 42/129/6 41/161/6
f 2/136/6 43/135/6 34/162/6 9/141/6
f 43/135/6 44/163/6 35/164/6 34/162/6
f 44/163/6 45/107/6 36/139/6 35/164/6
f 55/109/6 45/107/6 44/163/6 56/112/6
f 56/112/6 44/163/6 43/135/6 57/113/6
f 7/35/70 11/128/70 40/160/70 39/36/70
f 39/36/70 40/160/70 41/161/70 38/37/70
f 38/37/70 41/161/70 42/129/70 37/2/70
f 1/165/67 9/166/67 34/167/67 33/168/67
f 33/168/67 34/167/67 35/169/67 32/170/67
f 32/170/67 35/169/67 36/123/67 31/122/67
